<svg width="275" height="275" viewBox="0 0 275 275" fill="none" xmlns="http://www.w3.org/2000/svg">
<path d="M137.714 274.227C213.377 274.227 274.714 212.89 274.714 137.227C274.714 61.5636 213.377 0.226593 137.714 0.226593C62.0512 0.226593 0.714233 61.5636 0.714233 137.227C0.714233 212.89 62.0512 274.227 137.714 274.227Z" fill="rgb(var(--color-primary-100))"/>
<rect x="55.5142" y="67.8133" width="164.4" height="32.88" fill="white"/>
<path d="M219.914 274.227H55.5142V97.0399C63.2629 97.0312 70.6918 93.9492 76.171 88.4701C81.6502 82.9909 84.7322 75.562 84.7409 67.8133H190.688C190.679 71.6518 191.432 75.4538 192.903 78.9994C194.374 82.5449 196.533 85.7636 199.256 88.4692C201.962 91.1929 205.181 93.353 208.727 94.8242C212.273 96.2953 216.075 97.0484 219.914 97.0399V274.227Z" fill="white"/>
<path d="M137.714 186.547C161.926 186.547 181.554 166.919 181.554 142.707C181.554 118.494 161.926 98.8666 137.714 98.8666C113.502 98.8666 93.8743 118.494 93.8743 142.707C93.8743 166.919 113.502 186.547 137.714 186.547Z" fill="rgb(var(--color-primary-500))"/>
<path d="M153.214 163.373L137.714 147.874L122.214 163.373L117.048 158.207L132.548 142.707L117.048 127.207L122.214 122.041L137.714 137.54L153.214 122.041L158.381 127.207L142.881 142.707L158.381 158.207L153.214 163.373Z" fill="white"/>
<path d="M161.461 197.507H113.968C110.941 197.507 108.488 199.96 108.488 202.987C108.488 206.013 110.941 208.467 113.968 208.467H161.461C164.487 208.467 166.941 206.013 166.941 202.987C166.941 199.96 164.487 197.507 161.461 197.507Z" fill="rgb(var(--color-primary-100))"/>
<path d="M177.901 219.427H97.5275C94.501 219.427 92.0475 221.88 92.0475 224.907C92.0475 227.933 94.501 230.387 97.5275 230.387H177.901C180.927 230.387 183.381 227.933 183.381 224.907C183.381 221.88 180.927 219.427 177.901 219.427Z" fill="rgb(var(--color-primary-100))" opacity="0.6"/>
<defs>
<stop stop-color="#E3ECFA"/>
<stop offset="1" stop-color="#DAE7FF"/>
</linearGradient>
</defs>
</svg>
