<svg width="248" height="287" viewBox="0 0 248 287" fill="none" xmlns="http://www.w3.org/2000/svg" data-target="grid-empty-state-svg">
<path d="M124 270.227C192.483 270.227 248 214.71 248 146.227C248 77.7433 192.483 22.2266 124 22.2266C55.5167 22.2266 0 77.7433 0 146.227C0 214.71 55.5167 270.227 124 270.227Z" fill="#DDF0FE"/>
<g filter="url(#filter0_d_577_1090)">
<path d="M195.093 93.3198H52.9068C48.3412 93.3198 44.6401 97.0209 44.6401 101.586V275.186C44.6401 279.752 48.3412 283.453 52.9068 283.453H195.093C199.659 283.453 203.36 279.752 203.36 275.186V101.586C203.36 97.0209 199.659 93.3198 195.093 93.3198Z" fill="white"/>
</g>
<path d="M107.467 118.12H64.48C61.7407 118.12 59.52 120.34 59.52 123.08C59.52 125.819 61.7407 128.04 64.48 128.04H107.467C110.206 128.04 112.427 125.819 112.427 123.08C112.427 120.34 110.206 118.12 107.467 118.12Z" fill="#A2D7FC"/>
<path d="M137.227 139.613H64.48C61.7407 139.613 59.52 141.834 59.52 144.573C59.52 147.312 61.7407 149.533 64.48 149.533H137.227C139.966 149.533 142.187 147.312 142.187 144.573C142.187 141.834 139.966 139.613 137.227 139.613Z" fill="#DDF0FE"/>
<path d="M107.467 162.76H64.48C61.7407 162.76 59.52 164.981 59.52 167.72C59.52 170.459 61.7407 172.68 64.48 172.68H107.467C110.206 172.68 112.427 170.459 112.427 167.72C112.427 164.981 110.206 162.76 107.467 162.76Z" fill="#A2D7FC"/>
<path d="M137.227 184.253H64.48C61.7407 184.253 59.52 186.474 59.52 189.213C59.52 191.953 61.7407 194.173 64.48 194.173H137.227C139.966 194.173 142.187 191.953 142.187 189.213C142.187 186.474 139.966 184.253 137.227 184.253Z" fill="#DDF0FE"/>
<path d="M107.467 207.4H64.48C61.7407 207.4 59.52 209.621 59.52 212.36C59.52 215.099 61.7407 217.32 64.48 217.32H107.467C110.206 217.32 112.427 215.099 112.427 212.36C112.427 209.621 110.206 207.4 107.467 207.4Z" fill="#A2D7FC"/>
<path d="M137.227 228.893H64.48C61.7407 228.893 59.52 231.114 59.52 233.853C59.52 236.592 61.7407 238.813 64.48 238.813H137.227C139.966 238.813 142.187 236.592 142.187 233.853C142.187 231.114 139.966 228.893 137.227 228.893Z" fill="#DDF0FE"/>
<g filter="url(#filter1_d_577_1090)">
<path d="M195.093 9H52.9068C48.3412 9 44.6401 12.7011 44.6401 17.2667V66.8667C44.6401 71.4322 48.3412 75.1333 52.9068 75.1333H195.093C199.659 75.1333 203.36 71.4322 203.36 66.8667V17.2667C203.36 12.7011 199.659 9 195.093 9Z" fill="#0886DE"/>
</g>
<path d="M107.467 27.1865H64.48C61.7407 27.1865 59.52 29.4072 59.52 32.1465C59.52 34.8859 61.7407 37.1065 64.48 37.1065H107.467C110.206 37.1065 112.427 34.8859 112.427 32.1465C112.427 29.4072 110.206 27.1865 107.467 27.1865Z" fill="#A2D7FC"/>
<path d="M137.227 48.6799H64.48C61.7407 48.6799 59.52 50.9006 59.52 53.6399C59.52 56.3793 61.7407 58.5999 64.48 58.5999H137.227C139.966 58.5999 142.187 56.3793 142.187 53.6399C142.187 50.9006 139.966 48.6799 137.227 48.6799Z" fill="white"/>
<defs>
<filter id="filter0_d_577_1090" x="38.6401" y="84.3198" width="170.72" height="202.133" filterUnits="userSpaceOnUse" color-interpolation-filters="sRGB">
<feFlood flood-opacity="0" result="BackgroundImageFix"/>
<feColorMatrix in="SourceAlpha" type="matrix" values="0 0 0 0 0 0 0 0 0 0 0 0 0 0 0 0 0 0 127 0" result="hardAlpha"/>
<feOffset dy="-3"/>
<feGaussianBlur stdDeviation="3"/>
<feColorMatrix type="matrix" values="0 0 0 0 0.788235 0 0 0 0 0.803922 0 0 0 0 0.85098 0 0 0 0.349 0"/>
<feBlend mode="normal" in2="BackgroundImageFix" result="effect1_dropShadow_577_1090"/>
<feBlend mode="normal" in="SourceGraphic" in2="effect1_dropShadow_577_1090" result="shape"/>
</filter>
<filter id="filter1_d_577_1090" x="38.6401" y="0" width="170.72" height="78.1333" filterUnits="userSpaceOnUse" color-interpolation-filters="sRGB">
<feFlood flood-opacity="0" result="BackgroundImageFix"/>
<feColorMatrix in="SourceAlpha" type="matrix" values="0 0 0 0 0 0 0 0 0 0 0 0 0 0 0 0 0 0 127 0" result="hardAlpha"/>
<feOffset dy="-3"/>
<feGaussianBlur stdDeviation="3"/>
<feColorMatrix type="matrix" values="0 0 0 0 0.788235 0 0 0 0 0.803922 0 0 0 0 0.85098 0 0 0 0.349 0"/>
<feBlend mode="normal" in2="BackgroundImageFix" result="effect1_dropShadow_577_1090"/>
<feBlend mode="normal" in="SourceGraphic" in2="effect1_dropShadow_577_1090" result="shape"/>
</filter>
</defs>
</svg>
