<svg width="348" height="250" viewBox="0 0 348 250" fill="none" xmlns="http://www.w3.org/2000/svg" data-target="table-empty-state-svg">
<path d="M284.572 0H70.2863C60.4241 0 52.4292 7.99492 52.4292 17.8571V232.143C52.4292 242.005 60.4241 250 70.2863 250H284.572C294.434 250 302.429 242.005 302.429 232.143V17.8571C302.429 7.99492 294.434 0 284.572 0Z" fill="rgb(var(--color-primary-100))"/>
<g filter="url(#filter0_d_577_1275)">
<path d="M91.7142 96.4287H332.786C335.154 96.4287 337.425 97.3694 339.099 99.0438C340.774 100.718 341.714 102.989 341.714 105.357V150C341.714 152.368 340.774 154.639 339.099 156.314C337.425 157.988 335.154 158.929 332.786 158.929H91.7142C89.3462 158.929 87.0752 157.988 85.4008 156.314C83.7263 154.639 82.7856 152.368 82.7856 150V105.357C82.7856 102.989 83.7263 100.718 85.4008 99.0438C87.0752 97.3694 89.3462 96.4287 91.7142 96.4287V96.4287Z" fill="white"/>
</g>
<path d="M223.857 110.714H177.429C174.47 110.714 172.072 113.112 172.072 116.071C172.072 119.03 174.47 121.428 177.429 121.428H223.857C226.816 121.428 229.215 119.03 229.215 116.071C229.215 113.112 226.816 110.714 223.857 110.714Z" fill="rgb(var(--color-primary-100))"/>
<path d="M256 133.928H177.429C174.47 133.928 172.072 136.327 172.072 139.285C172.072 142.244 174.47 144.643 177.429 144.643H256C258.959 144.643 261.357 142.244 261.357 139.285C261.357 136.327 258.959 133.928 256 133.928Z" fill="rgb(var(--color-primary-100))" opacity="0.7"/>
<path d="M137.251 144.642C146.621 144.642 154.216 137.047 154.216 127.678C154.216 118.309 146.621 110.714 137.251 110.714C127.882 110.714 120.287 118.309 120.287 127.678C120.287 137.047 127.882 144.642 137.251 144.642Z" fill="rgb(var(--color-primary-500))"/>
<path d="M133.905 133V131.668L137.44 128.202C137.778 127.861 138.059 127.558 138.285 127.293C138.51 127.027 138.679 126.771 138.792 126.522C138.905 126.273 138.961 126.008 138.961 125.727C138.961 125.405 138.888 125.13 138.742 124.901C138.596 124.669 138.396 124.49 138.141 124.364C137.885 124.238 137.595 124.175 137.271 124.175C136.936 124.175 136.643 124.245 136.391 124.384C136.139 124.52 135.943 124.714 135.804 124.966C135.668 125.218 135.6 125.518 135.6 125.866H133.845C133.845 125.219 133.993 124.658 134.288 124.18C134.583 123.703 134.989 123.334 135.506 123.072C136.026 122.81 136.623 122.679 137.295 122.679C137.978 122.679 138.578 122.807 139.095 123.062C139.612 123.317 140.013 123.667 140.298 124.111C140.587 124.555 140.731 125.062 140.731 125.632C140.731 126.013 140.658 126.388 140.512 126.756C140.366 127.124 140.109 127.531 139.741 127.979C139.377 128.426 138.865 128.968 138.205 129.604L136.45 131.389V131.459H140.885V133H133.905Z" fill="white"/>
<g filter="url(#filter1_d_577_1275)">
<path d="M14.9286 173.214H256C258.368 173.214 260.639 174.155 262.313 175.829C263.988 177.504 264.929 179.775 264.929 182.143V226.786C264.929 229.154 263.988 231.425 262.313 233.099C260.639 234.774 258.368 235.714 256 235.714H14.9286C12.5606 235.714 10.2896 234.774 8.61512 233.099C6.94069 231.425 6 229.154 6 226.786V182.143C6 179.775 6.94069 177.504 8.61512 175.829C10.2896 174.155 12.5606 173.214 14.9286 173.214V173.214Z" fill="white"/>
</g>
<path d="M147.071 187.5H100.643C97.6841 187.5 95.2856 189.898 95.2856 192.857C95.2856 195.816 97.6841 198.214 100.643 198.214H147.071C150.03 198.214 152.429 195.816 152.429 192.857C152.429 189.898 150.03 187.5 147.071 187.5Z" fill="rgb(var(--color-primary-100))"/>
<path d="M179.214 210.714H100.643C97.6841 210.714 95.2856 213.113 95.2856 216.071C95.2856 219.03 97.6841 221.429 100.643 221.429H179.214C182.173 221.429 184.571 219.03 184.571 216.071C184.571 213.113 182.173 210.714 179.214 210.714Z" fill="rgb(var(--color-primary-100))" opacity="0.7"/>
<path d="M37.2499 221.428C46.619 221.428 54.2142 213.833 54.2142 204.464C54.2142 195.095 46.619 187.5 37.2499 187.5C27.8808 187.5 20.2856 195.095 20.2856 204.464C20.2856 213.833 27.8808 221.428 37.2499 221.428Z" fill="rgb(var(--color-primary-500))"/>
<path d="M36.9077 209.119C36.294 209.119 35.7486 209.014 35.2713 208.804C34.7969 208.594 34.4219 208.301 34.1463 207.926C33.8707 207.551 33.7244 207.118 33.7074 206.626H35.3097C35.3239 206.862 35.402 207.068 35.544 207.244C35.6861 207.418 35.875 207.553 36.1108 207.649C36.3466 207.746 36.6108 207.794 36.9034 207.794C37.2159 207.794 37.4929 207.74 37.7344 207.632C37.9759 207.521 38.1648 207.368 38.3011 207.172C38.4375 206.976 38.5043 206.75 38.5014 206.494C38.5043 206.23 38.4361 205.997 38.2969 205.795C38.1577 205.594 37.956 205.436 37.6918 205.322C37.4304 205.209 37.1151 205.152 36.7457 205.152H35.9744V203.933H36.7457C37.0497 203.933 37.3153 203.881 37.5426 203.776C37.7727 203.67 37.9531 203.523 38.0838 203.332C38.2145 203.139 38.2784 202.916 38.2756 202.663C38.2784 202.416 38.223 202.202 38.1094 202.02C37.9986 201.835 37.8409 201.692 37.6364 201.589C37.4347 201.487 37.1974 201.436 36.9247 201.436C36.6577 201.436 36.4105 201.484 36.1832 201.581C35.956 201.678 35.7727 201.815 35.6335 201.994C35.4943 202.17 35.4205 202.381 35.4119 202.625H33.8906C33.902 202.136 34.0426 201.707 34.3125 201.338C34.5852 200.966 34.9489 200.676 35.4034 200.469C35.858 200.259 36.3679 200.153 36.9332 200.153C37.5156 200.153 38.0213 200.263 38.4503 200.482C38.8821 200.697 39.2159 200.989 39.4517 201.355C39.6875 201.722 39.8054 202.126 39.8054 202.57C39.8082 203.061 39.6634 203.473 39.3707 203.805C39.081 204.138 38.7003 204.355 38.2287 204.457V204.526C38.8423 204.611 39.3125 204.838 39.6392 205.207C39.9688 205.574 40.1321 206.03 40.1293 206.575C40.1293 207.064 39.9901 207.501 39.7116 207.888C39.4361 208.271 39.0554 208.572 38.5696 208.791C38.0866 209.01 37.5327 209.119 36.9077 209.119Z" fill="white"/>
<g filter="url(#filter2_d_577_1275)">
<path d="M256 19.6428H14.9286C9.99746 19.6428 6 23.6403 6 28.5714V73.2142C6 78.1454 9.99746 82.1428 14.9286 82.1428H256C260.931 82.1428 264.929 78.1454 264.929 73.2142V28.5714C264.929 23.6403 260.931 19.6428 256 19.6428Z" ss="hh" fill="rgb(var(--color-primary-500))"/>
</g>
<path d="M143.5 33.929H97.0715C94.1128 33.929 91.7144 36.3274 91.7144 39.2861C91.7144 42.2448 94.1128 44.6432 97.0715 44.6432H143.5C146.459 44.6432 148.857 42.2448 148.857 39.2861C148.857 36.3274 146.459 33.929 143.5 33.929Z" fill="rgb(var(--color-primary-100))"/>
<path d="M175.643 57.1431H97.0715C94.1128 57.1431 91.7144 59.5415 91.7144 62.5002C91.7144 65.4589 94.1128 67.8574 97.0715 67.8574H175.643C178.602 67.8574 181 65.4589 181 62.5002C181 59.5415 178.602 57.1431 175.643 57.1431Z" fill="rgb(var(--color-primary-100))" opacity="0.7"/>
<path d="M60.4643 67.857C69.8334 67.857 77.4286 60.2619 77.4286 50.8928C77.4286 41.5236 69.8334 33.9285 60.4643 33.9285C51.0952 33.9285 43.5 41.5236 43.5 50.8928C43.5 60.2619 51.0952 67.857 60.4643 67.857Z" fill="white"/>
<path d="M62.1477 45.6746V55.8564H60.3032V47.4694H60.2435L57.8621 48.9907V47.3003L60.3927 45.6746H62.1477Z" fill="rgb(var(--color-primary-500))"/>
<defs>
<filter id="filter0_d_577_1275" x="76.7856" y="93.4287" width="270.929" height="74.5" filterUnits="userSpaceOnUse" color-interpolation-filters="sRGB">
<feFlood flood-opacity="0" result="BackgroundImageFix"/>
<feColorMatrix in="SourceAlpha" type="matrix" values="0 0 0 0 0 0 0 0 0 0 0 0 0 0 0 0 0 0 127 0" result="hardAlpha"/>
<feOffset dy="3"/>
<feGaussianBlur stdDeviation="3"/>
<feColorMatrix type="matrix" values="0 0 0 0 0 0 0 0 0 0 0 0 0 0 0 0 0 0 0.161 0"/>
<feBlend mode="normal" in2="BackgroundImageFix" result="effect1_dropShadow_577_1275"/>
<feBlend mode="normal" in="SourceGraphic" in2="effect1_dropShadow_577_1275" result="shape"/>
</filter>
<filter id="filter1_d_577_1275" x="0" y="170.214" width="270.929" height="74.5" filterUnits="userSpaceOnUse" color-interpolation-filters="sRGB">
<feFlood flood-opacity="0" result="BackgroundImageFix"/>
<feColorMatrix in="SourceAlpha" type="matrix" values="0 0 0 0 0 0 0 0 0 0 0 0 0 0 0 0 0 0 127 0" result="hardAlpha"/>
<feOffset dy="3"/>
<feGaussianBlur stdDeviation="3"/>
<feColorMatrix type="matrix" values="0 0 0 0 0 0 0 0 0 0 0 0 0 0 0 0 0 0 0.161 0"/>
<feBlend mode="normal" in2="BackgroundImageFix" result="effect1_dropShadow_577_1275"/>
<feBlend mode="normal" in="SourceGraphic" in2="effect1_dropShadow_577_1275" result="shape"/>
</filter>
<filter id="filter2_d_577_1275" x="0" y="16.6428" width="270.929" height="74.4998" filterUnits="userSpaceOnUse" color-interpolation-filters="sRGB">
<feFlood flood-opacity="0" result="BackgroundImageFix"/>
<feColorMatrix in="SourceAlpha" type="matrix" values="0 0 0 0 0 0 0 0 0 0 0 0 0 0 0 0 0 0 127 0" result="hardAlpha"/>
<feOffset dy="3"/>
<feGaussianBlur stdDeviation="3"/>
<feColorMatrix type="matrix" values="0 0 0 0 0 0 0 0 0 0 0 0 0 0 0 0 0 0 0.161 0"/>
<feBlend mode="normal" in2="BackgroundImageFix" result="effect1_dropShadow_577_1275"/>
<feBlend mode="normal" in="SourceGraphic" in2="effect1_dropShadow_577_1275" result="shape"/>
</filter>
<stop stop-color="#E3ECFA"/>
<stop offset="1" stop-color="#DAE7FF"/>
</linearGradient>
</defs>
</svg>
