<svg width="20" height="20" viewBox="0 0 20 20" fill="none" xmlns="http://www.w3.org/2000/svg">
<path d="M17.5702 5.2533C18.0073 6.27384 18.1143 7.4055 17.8762 8.48986C17.6381 9.57423 17.0669 10.557 16.2425 11.3006C15.4182 12.0442 14.3819 12.5114 13.2788 12.6367C12.1757 12.7621 11.061 12.5394 10.0908 11.9997V11.9997L5.41832 17.4135C5.04279 17.789 4.53348 18 4.0024 18C3.47133 18 2.96201 17.789 2.58649 17.4135C2.21097 17.038 2 16.5287 2 15.9976C2 15.4665 2.21097 14.9572 2.58649 14.5817L8.00028 9.90916C7.46064 8.93895 7.23791 7.82427 7.36328 6.72119C7.48864 5.6181 7.95582 4.58183 8.69941 3.75746C9.443 2.93308 10.4258 2.36188 11.5101 2.12381C12.5945 1.88574 13.7262 1.99273 14.7467 2.4298L11.2486 5.91962L11.7233 8.2767L14.0804 8.75144L17.5702 5.2533Z" stroke="#757D8A" stroke-width="1.5" stroke-linecap="round" stroke-linejoin="round"/>
</svg>
