<svg width="24" height="24" viewBox="0 0 24 24" fill="none" xmlns="http://www.w3.org/2000/svg" stroke="currentColor">
<path d="M9.00001 20.2499H4.5C4.30109 20.2499 4.11033 20.1709 3.96967 20.0302C3.82902 19.8896 3.75 19.6988 3.75 19.4999V15.3093C3.74966 15.2119 3.76853 15.1154 3.80553 15.0253C3.84253 14.9352 3.89694 14.8533 3.96563 14.7843L15.2156 3.53429C15.2854 3.46343 15.3686 3.40715 15.4603 3.36874C15.5521 3.33033 15.6506 3.31055 15.75 3.31055C15.8495 3.31055 15.9479 3.33033 16.0397 3.36874C16.1314 3.40715 16.2146 3.46343 16.2844 3.53429L20.4656 7.71554C20.5365 7.78533 20.5928 7.86851 20.6312 7.96026C20.6696 8.052 20.6894 8.15046 20.6894 8.24992C20.6894 8.34938 20.6696 8.44784 20.6312 8.53958C20.5928 8.63132 20.5365 8.71451 20.4656 8.78429L9.00001 20.2499Z" stroke-width="2" stroke-linecap="round" stroke-linejoin="round"/>
<path d="M20.25 20.25H9" stroke-width="2" stroke-linecap="round" stroke-linejoin="round"/>
<path d="M12.75 6L18 11.25" stroke-width="2" stroke-linecap="round" stroke-linejoin="round"/>
</svg>
