<svg width="12" height="12" viewBox="0 0 12 12" fill="none" xmlns="http://www.w3.org/2000/svg">
<mask id="mask0_236_827" style="mask-type:alpha" maskUnits="userSpaceOnUse" x="0" y="0" width="12" height="12">
<rect width="12" height="12" fill="#D9D9D9"/>
</mask>
<g mask="url(#mask0_236_827)">
<path d="M9.12109 3.49976C9.12103 3.06993 8.95036 2.65774 8.64648 2.35376C8.34246 2.04974 7.92995 1.8787 7.5 1.87866C7.07 1.87866 6.65757 2.0497 6.35352 2.35376L3.10352 5.60376C2.60064 6.10667 2.31793 6.78856 2.31787 7.49976C2.31787 8.21104 2.60057 8.89328 3.10352 9.39624C3.60648 9.89921 4.28869 10.1819 5 10.1819C5.71125 10.1818 6.39355 9.89917 6.89648 9.39624L10.1465 6.14624C10.3417 5.95118 10.6583 5.95108 10.8535 6.14624C11.0488 6.3415 11.0488 6.6585 10.8535 6.85376L7.60352 10.1038C6.91305 10.7942 5.97644 11.1818 5 11.1819C4.02357 11.1819 3.08697 10.7941 2.39648 10.1038C1.70598 9.41325 1.31787 8.47628 1.31787 7.49976C1.31793 6.52332 1.70603 5.58669 2.39648 4.89624L5.64648 1.64624C6.13806 1.15476 6.80487 0.878662 7.5 0.878662C8.19515 0.878701 8.86196 1.15471 9.35352 1.64624C9.84505 2.13778 10.121 2.80462 10.1211 3.49976C10.1211 4.19497 9.84511 4.86217 9.35352 5.35376L6.10352 8.60376C5.81088 8.89637 5.41383 9.06075 5 9.06079C4.58618 9.06079 4.18915 8.89631 3.89648 8.60376C3.6038 8.31108 3.43896 7.91367 3.43896 7.49976C3.43902 7.08592 3.60386 6.68887 3.89648 6.39624L7.14648 3.14624C7.34175 2.95118 7.65831 2.95108 7.85352 3.14624C8.04878 3.3415 8.04878 3.6585 7.85352 3.85376L4.60352 7.10376C4.49846 7.20885 4.43902 7.35117 4.43896 7.49976C4.43896 7.64843 4.4984 7.7911 4.60352 7.89624C4.70866 8.00138 4.8513 8.06079 5 8.06079C5.14864 8.06075 5.29137 8.00135 5.39648 7.89624L8.64648 4.64624C8.95042 4.3422 9.12109 3.92967 9.12109 3.49976Z" fill="currentColor"/>
</g>
</svg>

