<svg version="1.1" xmlns="http://www.w3.org/2000/svg" xmlns:xlink="http://www.w3.org/1999/xlink" viewBox="0 0 515 450" style="enable-background:new 0 0 515 450;" xml:space="preserve">
<path d="M438.4,116.4l-72.3-72.3c-7.8-7.8-18.3-12.1-29.2-12.1h-231C83,32,64.5,50.5,64.5,73.4v303.3c0,22.8,18.5,41.4,41.4,41.4
	h303.3c22.8,0,41.4-18.5,41.4-41.4v-231C450.5,134.7,446.1,124.1,438.4,116.4L438.4,116.4z M298.9,73.4v68.9H188.6V73.4H298.9z
	 M404,376.6H111c-2.9,0-5.2-2.3-5.2-5.2V78.5c0-2.9,2.3-5.2,5.2-5.2h36.2V163c0,11.4,9.3,20.7,20.7,20.7h151.6
	c11.4,0,20.7-9.3,20.7-20.7V76.7l67.4,67.4c1,1,1.5,2.3,1.5,3.7v223.7C409.1,374.3,406.8,376.6,404,376.6L404,376.6z M257.5,204.3
	c-41.8,0-75.8,34-75.8,75.8s34,75.8,75.8,75.8s75.8-34,75.8-75.8S299.3,204.3,257.5,204.3z M257.5,314.6c-19,0-34.5-15.5-34.5-34.5
	s15.5-34.5,34.5-34.5s34.5,15.5,34.5,34.5S276.5,314.6,257.5,314.6z"/>
</svg>
