<svg width="14" height="14" viewBox="0 0 14 14" fill="none" xmlns="http://www.w3.org/2000/svg">
<mask id="mask0_3928_274" style="mask-type:alpha" maskUnits="userSpaceOnUse" x="0" y="0" width="14" height="14">
<rect width="14" height="14" fill="#D9D9D9"/>
</mask>
<g mask="url(#mask0_3928_274)">
<path d="M5.83328 11.0833C5.83328 10.7739 5.95629 10.4773 6.17508 10.2585C6.39387 10.0397 6.69053 9.91667 6.99995 9.91667C7.30937 9.91667 7.60603 10.0397 7.82482 10.2585C8.04361 10.4773 8.16662 10.7739 8.16662 11.0833C8.16662 11.3928 8.04361 11.6894 7.82482 11.9082C7.60603 12.127 7.30937 12.25 6.99995 12.25C6.69053 12.25 6.39387 12.127 6.17508 11.9082C5.95629 11.6894 5.83328 11.3928 5.83328 11.0833ZM5.83328 7C5.83328 6.69058 5.95629 6.39392 6.17508 6.17513C6.39387 5.95634 6.69053 5.83333 6.99995 5.83333C7.30937 5.83333 7.60603 5.95634 7.82482 6.17513C8.04361 6.39392 8.16662 6.69058 8.16662 7C8.16662 7.30942 8.04361 7.60608 7.82482 7.82487C7.60603 8.04366 7.30937 8.16667 6.99995 8.16667C6.69053 8.16667 6.39387 8.04366 6.17508 7.82487C5.95629 7.60608 5.83328 7.30942 5.83328 7ZM5.83328 2.91667C5.83328 2.60725 5.95629 2.31059 6.17508 2.0918C6.39387 1.873 6.69053 1.75 6.99995 1.75L7.11502 1.7557C7.38219 1.78217 7.63332 1.9003 7.82482 2.0918C8.04361 2.31059 8.16662 2.60725 8.16662 2.91667C8.16662 3.22609 8.04361 3.52274 7.82482 3.74154C7.60603 3.96033 7.30937 4.08333 6.99995 4.08333C6.69053 4.08333 6.39387 3.96033 6.17508 3.74154C5.95629 3.52274 5.83328 3.22609 5.83328 2.91667Z" fill="#6D6D6D"/>
</g>
</svg>
